# xmcd
#
# Track frame offsets:
#	150
#	20218
#	35781
#	57363
#	71193
#	86786
#	108702
#	130387
#	151199
#	176936
#	199957
#	214839
#	234264
#	253716
#	274055
#	290867
#	312346
#
# Disc length: 4538 seconds
# Revision: 0
# Processed by: cddbd v1.5.2PL0 Copyright (c) Steve Scherf et al.
# Submitted via: dBpowerAMP V12.0
#
DISCID=1711b811
DTITLE=Jerry Jeff Walker - Jerry Jeff Walker
DYEAR=1972
DGENRE=Country
TTITLE0=Hill Country Rain
TTITLE1=Charlie Dunn
TTITLE2=That Old Time Feeling
TTITLE3=Her Good Loving Grace
TTITLE4=Hairy Ass Hillbillies
TTITLE5=David And Me
TTITLE6=L  A Freeway
TTITLE7=Curly And Lil
TTITLE8=That Old Beat Up Guitar
TTITLE9=When I Had You
TTITLE10=Moon Child
TTITLE11=The Continuing Saga Of The Classic Bummer or Is This My Free One Way Ticket to Cleveland
TTITLE12=Don't It Make You You Wanna Dance
TTITLE13=Roll On Down The Road
TTITLE14=Song For The Life
TTITLE15=Leavin' Texas
TTITLE16=Mr Bojangles
EXTD=
EXTT0=
EXTT1=
EXTT2=
EXTT3=
EXTT4=
EXTT5=
EXTT6=
EXTT7=
EXTT8=
EXTT9=
EXTT10=
EXTT11=
EXTT12=
EXTT13=
EXTT14=
EXTT15=
EXTT16=
PLAYORDER=
